<?xml version="1.0" encoding="UTF-8"?>
<svg width="18px" height="18px" viewBox="0 0 18 18" version="1.1" xmlns="http://www.w3.org/2000/svg">
    <g stroke="none" stroke-width="1" fill="#FFFFFF" fill-rule="evenodd">
        <path d="M17.0062 9.00625C17.0062 4.03281 13.9734 0 9 0C4.02656 0 0.99375 4.03281 0.99375 9.00625C0.99375 13.5 3.44062 17.2594 6.94219 17.9344V11.4844H5.13281V9.00625H6.94219V6.98438C6.94219 4.82812 8.03438 3.67969 9.95625 3.67969C10.8844 3.67969 11.7562 3.85312 11.7562 3.85312V5.73281H10.7156C9.69375 5.73281 9.35625 6.39844 9.35625 7.08281V9.00625H11.6531L11.2687 11.4844H9.35625V17.9344C12.8578 17.2594 15.3047 13.5 15.3047 9.00625H17.0062Z"></path>
    </g>
</svg>
